<svg viewBox="0 0 469 423" stroke="white" width="100%" height="auto" xmlns="http://www.w3.org/2000/svg">
  <path fill="#14532d" d="m465.159 155.851c-9.709 2.314-19.793 2.574-29.608.763s-19.144-5.652-27.388-11.278c8.201-3.95 17.611-4.579 26.265-1.753 5.174-26.357 10.368-53.4276 5.779-79.896-4.589-26.4685-21.174-52.5966-46.815-60.59511-28.002-8.73931-61.426 9.34941-69.43 37.56901l-12.11-35.19155-64.88-2.15963c-5.585-.18791-11.824-.13885-15.873 3.71472-4.2 3.99516-4.405 10.46046-5.478 16.15506s-4.722 12.1734-10.512 11.9528c-.759-10.0764-3.132-22.3153-12.729-25.46078-4.932-1.61496-10.283-.13345-15.25 1.36168l-69.738 20.7685c4.498 10.7446 6.508 22.367 5.881 33.9981s-3.876 22.9699-9.503 33.1684c-9.858.6918-17.8924-7.2033-25.4171-13.6168-7.5247-6.4136-18.5405-11.9448-26.7869-6.4926-2.8687 2.2119-5.2379 5.0055-6.9507 8.1974-12.6419 20.0678-25.2841 40.1358-37.9278 60.2058 16.2312 21.209 38.8778 36.61 64.5684 43.909-21.749 14.544-46.145 24.671-71.7997 29.807-.55825-.667-1.31331-1.141-2.15689-1.355-.84358-.213-1.73286-.154-2.5412.168-1.07164.581-1.94353 1.471-2.50263 2.554h-.02925.02127c-1.03403 2.227-1.533408 4.665-1.457426 7.119-.656334 48.299 39.949726 93.603 88.033626 98.219-8.0558 23.927 5.5227 50.851 25.6563 66.085 20.134 15.235 45.494 21.4 70.065 27.204 9.572 2.26 21.73 3.608 27.288-4.505 6.664-9.722 0-28.276 11.338-31.465-8.835 11.558.713 29.624 14.36 34.663 13.647 5.038 28.785 1.19 42.805-2.688 9.172-2.536 18.849-5.371 25.287-12.378s7.727-19.625.096-25.306c2.124-2.79 4.249-5.58 6.375-8.369l11.239 17.324c13.361-13.889 30.976-22.686 47.659-32.302s33.403-20.899 42.926-37.651c9.524-16.751 9.616-40.289-4.573-53.323 14.584 7.015 33.413 13.567 45.568 2.884 6.952-6.112 9.018-15.968 10.279-25.137 3.967-28.821 3.956-58.05-.033-86.868zm-198.477-77.82c4.344 4.9402 9.918 8.9735 14.267 13.9137 4.594 5.5238 8.412 11.6493 11.348 18.2053-.587-.145-1.15-.373-1.674-.678-11.166-6.563-20.27-16.0676-23.761-28.794-.249-.863-.31-1.7692-.18-2.6579zm-76.148 38.824c2.247 4.437 4.735 8.74 6.898 12.667 4.079 8.01 8.637 15.768 13.65 23.23 9.382 12.944 21.699 27.416 35.487 36.134-.902.631-1.971.98-3.072 1.003-1.1.023-2.184-.28-3.113-.872-26.089-15.153-42.568-38.915-50.276-67.87-.424-1.434-.271-2.978.426-4.302zm-66.385 44.574c.183-.066.356-.142.544-.191 3.393 5.7 8.341 11.139 11.751 15.91 3.565 8.161 7.581 16.117 12.029 23.832 0 .077.023.15.028.226.27 3.662.1 7.343-.506 10.965-13.508-11.052-23.059-29.729-22.97-46.254.028-1.545-.27-3.078-.876-4.499zm151.195 176.131c-20.153-3.099-35.346-15.095-51.294-26.634.702.329 1.405.667 2.094 1.04 7.222 4.143 14.874 7.487 22.82 9.973 8.199 2.51 16.147 5.776 23.742 9.755 2.575 1.412 5.051 3 7.408 4.752-.682.492-1.455.843-2.274 1.032s-1.668.214-2.496.071zm-121.315-57.92c-4.054 1.301-8.13 2.553-12.23 3.755 2.402-1.634 4.817-3.268 7.165-4.973 11.629-8.442 24.982-13.848 36.633-22.304 7.295-5.297 13.742-11.25 21.898-15.434 9.009-4.629 18.549-8.317 27.468-13.072 13.93-7.281 27.131-15.877 39.424-25.673 5.117-4.481 9.816-9.417 14.041-14.747 11.776-8.865 22.604-19.371 33.481-29.23 9.355-8.709 17.513-18.621 24.258-29.478 7.497-10.107 13.845-21.018 18.929-32.5305 4.983-10.0905 11.172-19.5389 18.432-28.1379-1.907 6.605-4.21 13.0885-6.9 19.4149-5.27 13.7745-14.042 25.2835-20.257 38.4865-1.356 2.882-2.78 5.765-4.271 8.65-18.665 26.027-41.008 49.208-66.33 68.819-40.35 31.308-88.401 49.947-131.741 76.443zm196.914 7.897c-9.864-.079-19.897-.621-29.053-4.629-9.039-3.955-16.12-10.978-22.743-18.105-.456-.485-.837-1.036-1.128-1.634 1.112.197 2.248.219 3.366.062 1.721.892 3.498 1.673 5.319 2.337 4.837 1.691 9.857 1.841 14.658 3.083 1.554 1.074 3.193 2.018 4.902 2.824 2.569 1.159 5.267 2.008 8.037 2.53 6.659 3.477 12.71 8.01 17.919 13.423-.422.074-.849.109-1.277.104zm52.789-67.204c-21.242-3.214-35.433-20.314-55.829-25.118-.654-.158-1.277-.42-1.848-.776.31.013.591.076.915.068 13.205-.34 27.59 7.353 39.167 13.421 6.996 3.663 13.435 8.115 19.996 12.323-.789.172-1.603.198-2.401.076z" />
</svg>
